<?xml version="1.0" encoding="UTF-8"?>
<!DOCTYPE svg PUBLIC "-//W3C//DTD SVG 1.1//EN" "http://www.w3.org/Graphics/SVG/1.1/DTD/svg11.dtd">
<!-- Creator: CorelDRAW (OEM Sürümü) -->
<svg xmlns="http://www.w3.org/2000/svg" xml:space="preserve" width="93.6932mm" height="16.76mm" version="1.1" style="shape-rendering:geometricPrecision; text-rendering:geometricPrecision; image-rendering:optimizeQuality; fill-rule:evenodd; clip-rule:evenodd"
viewBox="0 0 8013 1433.38"
 xmlns:xlink="http://www.w3.org/1999/xlink"
 xmlns:xodm="http://www.corel.com/coreldraw/odm/2003">
 <defs>
  <style type="text/css">
   <![CDATA[
    .fil8 {fill:#0069A3}
    .fil1 {fill:#0088CC}
    .fil9 {fill:#02CC69}
    .fil6 {fill:#50B0D6}
    .fil4 {fill:#53D680}
    .fil11 {fill:#84DEEA}
    .fil0 {fill:#96EFF1}
    .fil13 {fill:#C0F8CF}
    .fil5 {fill:#F5C02C}
    .fil2 {fill:#FE6466}
    .fil10 {fill:#FEF5F3}
    .fil7 {fill:#FF393A}
    .fil12 {fill:#FF8C7C}
    .fil3 {fill:#FFCF48}
    .fil14 {fill:#FFF1C4}
    .fil15 {fill:#85E1E6;fill-rule:nonzero}
    .fil16 {fill:#96EFF1;fill-rule:nonzero}
   ]]>
  </style>
 </defs>
 <g id="Layer_x0020_1">
  <metadata id="CorelCorpID_0Corel-Layer"/>
  <g id="_3224694173664">
   <path class="fil0" d="M341.5 920.61c0,28.17 -6.6,126.79 4.16,145.42 31.14,12.91 49.54,18.68 68.99,38.01 19.48,19.35 25.3,37.98 38.22,68.99 13.38,8.18 88.01,4.26 108.37,4.26 106.69,0 232.54,2.75 334.93,-0.27 5.5,-21.62 13.37,-40.82 23.22,-57.45 12.24,-20.68 22.03,-29.19 36.89,-44.28 21.19,-21.51 66.97,-52.55 110.27,-52.72l2.45 -1.95 -1.2 -192.26c-12,-4.41 -26.29,-13.57 -32.57,-20.15 -9.24,-9.68 -11.71,-19.52 -19.63,-32.04l-432.13 0.24c-14.53,57.22 -36.21,88.58 -76.2,115.84 -46.71,31.86 -99.5,28.41 -165.78,28.35z"/>
   <path class="fil0" d="M341.5 461.82l0 113.08 76.42 1.35c50.7,2.33 82.57,20.13 111.27,43.81 25.73,21.24 43.67,56.05 54.17,99.6l432.61 0.1c13.19,-27.26 23.56,-39.61 52.26,-52.43l0.41 -121.82 -226.93 -226.83 -255.96 -0.03c0.05,31.64 1.52,67.26 -0.01,98.43 -1.49,30.22 -19.04,44.8 -49.56,44.93 -64.69,0.29 -130,0.43 -194.67,-0.2z"/>
   <path class="fil1" d="M213.25 333.15c0,-18.11 3.06,-21.19 20.43,-21.19l156.77 0c28.11,0 25.85,19.4 20.23,53.01 -19.54,8.22 -146.74,3.91 -177.01,3.91 -23.27,0 -20.43,-14.34 -20.43,-35.72zm-89.28 -120.73c35.38,-2.33 373.65,-3.81 382.92,3.94 11.9,8.34 6.82,40.06 2.16,50.17 -23.94,5.75 -330.93,2.44 -382.24,2.22 1.84,36.07 0.4,75.55 0.4,112 0,14.98 -1.63,40.94 2.77,53.38 5.6,15.81 16.98,19.63 28.91,27.83l125.93 -0.09 56.67 -0.05c64.67,0.62 129.98,0.49 194.67,0.2 30.52,-0.14 48.07,-14.72 49.56,-44.93 1.53,-31.17 0.06,-66.79 0.01,-98.43l-0.09 -56.82c0.35,-28.66 2.83,-77.67 -0.38,-104.31 -3.95,-32.78 -28.77,-39.84 -63.2,-39.7 -69.03,0.27 -138.14,0.06 -207.18,0.02l-153.22 -0.26c-15.71,9.74 -28.76,13.87 -33.22,34.55 -4.01,18.65 3.78,47.12 -4.46,60.29z"/>
   <path class="fil0" d="M314.87 117.83c69.04,0.04 138.15,0.26 207.18,-0.02 34.43,-0.14 59.25,6.92 63.2,39.7 3.22,26.64 0.74,75.65 0.38,104.31l256.86 -0.09c13.44,-9.9 32.3,-31.26 45.35,-44.3 16.08,-16.09 30.11,-30.11 46.19,-46.2 17.21,-17.2 82.27,-77.5 90.24,-92.85 -61.31,-41.29 -184.78,-71.12 -285.38,-78.39l-83.69 0c-1.34,0.13 -2.68,0.27 -3.99,0.41 -118.19,13.09 -222.04,42.02 -318.43,104.3 -8.66,5.59 -12.88,5.82 -17.93,13.13z"/>
   <path class="fil2" d="M216.03 837.97c-3.06,-9.3 -4.45,-25.56 -3.04,-37.49 1.74,-14.74 8.61,-16.69 23.26,-16.87l157.24 0.04c19.05,0.82 23.18,8.92 20.01,39.6 -1.18,11.49 -0.16,8.49 -6.27,14.15 -11.03,7.49 -174.64,6.24 -191.2,0.57zm-61.18 -154.42c51.65,1.51 330.87,-3.73 353.58,2.39 7.12,13 6.94,34.3 2.46,50.65 -23.98,10.25 -144.16,4.4 -182.03,4.4 -61.49,0 -126.15,1.92 -187.25,-0.3 -0.13,48.55 15.39,89.72 40.22,117.43 17.88,19.96 56.04,54.43 98.14,57.35 -22.84,0.15 -53.32,-3.56 -74.53,1.96 8.81,4.77 26.46,2.7 36.64,2.68 14.25,-0.03 28.5,0.01 42.74,-0.01l56.67 0.51c66.28,0.06 119.07,3.51 165.78,-28.35 39.99,-27.26 61.67,-58.63 76.2,-115.84l-0.13 -56.75c-10.5,-43.55 -28.44,-78.36 -54.17,-99.6 -28.69,-23.68 -60.57,-41.48 -111.27,-43.81l-126.4 0.13c-8.12,4.22 -33.45,8.3 -46.76,14.21 -16.15,7.15 -25.79,13.44 -38.57,23.03 -17.94,13.48 -42.74,43.17 -51.33,69.93z"/>
   <path class="fil0" d="M176.48 1164.62c4,-13.93 9.31,-25.18 16.11,-35.5 9.43,-14.3 12.82,-16.36 23.3,-27.09 20.15,-20.63 34.18,-25.49 65.4,-36.14 8.9,-17.73 3.54,-118.62 3.54,-145.79 -14.25,0.02 -28.5,-0.02 -42.74,0.01 -10.18,0.03 -27.83,2.1 -36.64,-2.68 -23.48,5.17 -51.04,-7.64 -69.39,-16.28 -53.79,-25.36 -95.63,-87.92 -94.59,-156.47 1.42,-93.32 75.62,-164.88 168.36,-168.17l75 -0.82 0 -113.82 -125.93 0.09c-21.76,-0.15 -43.55,0.15 -65.31,0.03 -22.94,-0.14 -33.21,-8.01 -44.69,-16.87 -35.66,74.59 -54.51,218.97 -47.45,305.02 2.92,35.48 8.92,68.84 15.48,102.11 18.35,93.14 72.52,206.98 131.87,279.66 9.7,11.88 17.09,22.87 27.67,32.71z"/>
   <path class="fil3" d="M1085.09 256.78c44.22,-16.62 68.9,49.65 26.18,66.76 -44.28,17.73 -73.2,-49.09 -26.18,-66.76zm120.87 0.31c43.23,-17.99 68.38,48.26 28.04,65.86 -43.66,19.06 -76.22,-45.81 -28.04,-65.86zm-235.98 -2.71c60.66,-0.2 55.43,77.78 -4.72,70.63 0.71,0.58 1.91,0.28 2.33,1.45l6.47 3.63c15.33,8.5 119.06,116.28 136.66,133.87 12.05,12.06 39.34,36.24 46.77,48.71 13.07,-6.89 63.71,-61.28 78.4,-75.96 13.75,-13.75 25.43,-25.46 39.18,-39.21 12.12,-12.12 26.8,-28.73 39.25,-38.44 9.82,-8.18 26.21,-24.25 34.04,-33.85 35.53,-43.6 5.34,-63.25 -17.94,-86.53l-171.57 -171.48c-7.68,13.35 -145.79,148.82 -172.98,175.38 -2.56,2.49 -3.25,3.24 -5.82,5.2l-10.07 6.6z"/>
   <path class="fil4" d="M1081.61 1433.38c75.32,0 134.46,-18.97 179.57,-78.33 16.93,-22.27 34.57,-54.06 40.79,-88 6.58,-35.87 4.54,-88.38 -10.05,-112.65 -11.96,10.16 -24.45,25.02 -35.6,36.2 -12.79,12.81 -23.56,23.63 -36.39,36.4 -15.04,14.98 -59.84,63.43 -73.88,70.04 -8.61,17.8 -35.66,43.51 -65.17,33.84 -14.06,-4.6 -41.07,-36.13 -52.87,-47.92 -8.41,-8.41 -45.76,-42.92 -50.25,-50.5 -18.18,-30.71 1.8,-58.68 28.6,-64.07 34.87,-11.19 68.53,48.23 90.28,60.38 24.96,-24.28 48.63,-48.55 73.77,-73.69 25.98,-25.97 54.83,-63.52 82.12,-65.9 -7.3,-12.38 -35.45,-34.89 -53.48,-44.46 -26.73,-14.19 -41.18,-17.93 -73.3,-24.54l-56.74 0.45 -2.45 1.95 10 -1.25c-11.33,13.69 -116.74,66.59 -114.98,207.69 1.03,82.95 38.07,140.64 95.71,187.05 8.08,6.5 18.23,11.13 24.33,17.32z"/>
   <path class="fil0" d="M387.66 1327.27c17.1,13.64 93.55,40.68 117.57,47.33 46.71,12.92 86.11,21.07 142.6,25.37 54.69,4.16 103.35,2.96 155.41,-4.54l103.37 -22.61c11.57,-3.43 20.77,-8.45 32.67,-9.42 -4.64,-13.32 -22.61,-32 -31.31,-52.68 -9.48,-22.54 -14.03,-40.76 -17.21,-67.71 -5.6,-7.27 -4.76,9.13 -4.76,-8.71l-432.54 0.1c-6.41,22.13 -12.73,39.15 -24.72,55.29 -10.21,13.76 -25.57,29.39 -41.09,37.6z"/>
   <path class="fil0" d="M1157.5 512.66l-31.34 32.91 0.43 121.67c28.61,12.57 39.09,25.1 52.22,52.45l225.11 0.69c0,-77 -6.34,-140.49 -23.58,-201.29 -8.89,-31.34 -17.02,-55.04 -28.4,-83.59 -8.52,-21.36 -25.67,-61.53 -37.6,-76.47 -12.44,9.72 -27.13,26.32 -39.25,38.44 -13.74,13.75 -25.43,25.46 -39.18,39.21 -14.69,14.68 -65.33,69.07 -78.4,75.96z"/>
   <path class="fil0" d="M1126.94 828.39l-1.2 191.78c32.12,6.6 46.57,10.35 73.3,24.54 18.03,9.57 46.17,32.08 53.48,44.46 14.78,1.04 19.41,5.91 31,9.07l39.32 -70.67c24.11,-41.48 49.77,-110.47 60.76,-157.61l17.5 -95.02 -221.96 1.27c-9.07,14.5 -7.83,19.06 -20.29,31.38 -8.83,8.72 -17.86,15.66 -31.91,20.8z"/>
   <path class="fil5" d="M1024.28 78.39c-7.96,15.35 -73.03,75.65 -90.24,92.85 -16.08,16.09 -30.11,30.11 -46.19,46.2 -13.05,13.04 -31.91,34.41 -45.35,44.3 -16.2,20.47 -11.61,36.46 -0.8,56.94l226.93 226.83c23.84,14.14 33.63,14.09 57.52,0.05l31.34 -32.91c-7.43,-12.47 -34.72,-36.65 -46.77,-48.71 -17.6,-17.59 -121.32,-125.37 -136.66,-133.87l-6.47 -3.63c-0.43,-1.16 -1.62,-0.86 -2.33,-1.45 -35.43,-17.28 -33.61,-57.62 4.72,-70.63l10.07 -6.6c2.57,-1.96 3.26,-2.71 5.82,-5.2 27.19,-26.56 165.3,-162.03 172.98,-175.38 -18.13,-18.66 -38.62,-49.06 -71.11,-42.01 -23.56,5.11 -46.76,38.11 -63.45,53.21z"/>
   <path class="fil6" d="M281.29 1065.89c-31.22,10.66 -45.25,15.51 -65.4,36.14 -10.48,10.72 -13.86,12.79 -23.3,27.09 -6.8,10.32 -12.11,21.57 -16.11,35.5 8.55,17.82 76.5,76.73 95.17,90.81 18.73,14.13 35.4,25.38 54.39,38 13.43,8.92 45.48,29.32 61.62,33.84 15.51,-8.21 30.87,-23.84 41.09,-37.6 11.98,-16.14 18.31,-33.16 24.72,-55.29 3.53,-24.47 2.51,-38.12 -0.6,-61.35 -12.92,-31.01 -18.74,-49.64 -38.22,-68.99 -19.45,-19.33 -37.85,-25.1 -68.99,-38.01 -26.47,-3.41 -37.77,-3.86 -64.37,-0.14z"/>
   <path class="fil7" d="M205.45 917.43c21.21,-5.52 51.69,-1.81 74.53,-1.96 -42.1,-2.92 -80.26,-37.39 -98.14,-57.35 -24.84,-27.71 -40.35,-68.88 -40.22,-117.43 -14.96,0.56 -15.29,0.63 -26.08,-3.56 -3.89,-13.79 -3.79,-35.57 -0.17,-49.52 13.7,-5.49 21.8,-3.46 39.48,-4.06 8.59,-26.76 33.39,-56.45 51.33,-69.93 12.79,-9.6 22.42,-15.88 38.57,-23.03 13.32,-5.9 38.65,-9.98 46.76,-14.21l-81.68 0.13c-92.74,3.29 -166.94,74.86 -168.36,168.17 -1.04,68.55 40.8,131.11 94.59,156.47 18.34,8.65 45.9,21.45 69.39,16.28z"/>
   <path class="fil8" d="M48.91 445.12c11.48,8.86 21.75,16.73 44.69,16.87 21.76,0.12 43.55,-0.18 65.31,-0.03 -11.93,-8.2 -23.31,-12.02 -28.91,-27.83 -4.4,-12.44 -2.77,-38.4 -2.77,-53.38 0,-36.45 1.44,-75.93 -0.4,-112 -16.07,-3.99 -14.04,-11.42 -14.05,-27.97 0,-17.11 -1.56,-22.07 11.2,-28.35 8.24,-13.17 0.45,-41.63 4.46,-60.29 4.46,-20.68 17.51,-24.81 33.22,-34.55 -32.96,0 -84.1,-6.7 -103.68,9.07 -24.7,19.88 -17.46,54.9 -17.46,97.32l0 170.78c-0.07,27.45 -1.54,31.66 8.4,50.37z"/>
   <path class="fil9" d="M896.16 1177.02c-5.69,23.42 -6.35,41.42 -5.4,65.97 3.17,26.95 7.73,45.17 17.21,67.71 8.7,20.68 26.67,39.36 31.31,52.68 9.35,6.42 17.79,16.53 28.25,24.84 11.08,8.8 18.15,14.18 31.59,21.6 18.22,10.06 55.97,23.55 82.49,23.55 -6.1,-6.19 -16.25,-10.82 -24.33,-17.32 -57.64,-46.41 -94.67,-104.1 -95.71,-187.05 -1.76,-141.1 103.65,-193.99 114.98,-207.69l-10 1.25c-43.3,0.16 -89.08,31.21 -110.27,52.72 -14.86,15.09 -24.66,23.6 -36.89,44.28 -9.85,16.63 -17.72,35.83 -23.22,57.45z"/>
   <path class="fil10" d="M1006.35 1168.38c-8.04,29.82 24.99,52.43 53,80.44 36.96,36.97 46.55,57.9 86.7,48.22 14.04,-6.6 58.85,-55.05 73.88,-70.04 12.83,-12.77 23.6,-23.59 36.39,-36.4 11.15,-11.18 23.65,-26.04 35.6,-36.2 10.74,-26.91 4.17,-36.48 -8.4,-56.16 -11.59,-3.16 -16.22,-8.02 -31,-9.07 -27.29,2.39 -56.14,39.93 -82.12,65.9 -25.14,25.14 -48.82,49.41 -73.77,73.69 -21.75,-12.15 -55.41,-71.57 -90.28,-60.38z"/>
   <path class="fil11" d="M453.46 1234.38l432.54 -0.1c0,17.85 -0.84,1.45 4.76,8.71 -0.96,-24.55 -0.29,-42.55 5.4,-65.97 -102.39,3.02 -228.24,0.27 -334.93,0.27 -20.35,0 -94.99,3.92 -108.37,-4.26 3.11,23.24 4.13,36.89 0.6,61.35z"/>
   <path class="fil11" d="M583.48 776.42l432.13 -0.24c-4.58,-26.73 -5.2,-29.47 0.35,-56.41l-432.61 -0.1 0.13 56.75z"/>
   <path class="fil12" d="M141.62 740.69c61.1,2.22 125.75,0.3 187.25,0.3 37.87,0 158.05,5.85 182.03,-4.4 4.47,-16.35 4.65,-37.65 -2.46,-50.65 -22.71,-6.12 -301.93,-0.89 -353.58,-2.39 -17.68,0.61 -25.78,-1.43 -39.48,4.06 -3.62,13.95 -3.72,35.72 0.17,49.52 10.78,4.19 11.12,4.11 26.08,3.56z"/>
   <path class="fil6" d="M1068.22 667.34c-28.69,12.82 -39.07,25.16 -52.26,52.43 -5.55,26.94 -4.93,29.69 -0.35,56.41 7.92,12.52 10.39,22.36 19.63,32.04 6.28,6.58 20.57,15.74 32.57,20.15 20.36,7.35 38.72,7.26 59.13,0.03 14.05,-5.14 23.08,-12.08 31.91,-20.8 12.46,-12.32 11.22,-16.88 20.29,-31.38 4.79,-26.55 5.14,-29.91 -0.34,-56.51 -13.13,-27.35 -23.61,-39.88 -52.22,-52.45 -25.69,-6.62 -32.63,-6.81 -58.36,0.09z"/>
   <path class="fil11" d="M126.82 268.74c51.31,0.22 358.3,3.53 382.24,-2.22 4.65,-10.11 9.74,-41.83 -2.16,-50.17 -9.27,-7.75 -347.54,-6.27 -382.92,-3.94 -12.76,6.29 -11.2,11.24 -11.2,28.35 0.01,16.56 -2.02,23.99 14.05,27.97z"/>
   <path class="fil11" d="M585.74 318.65l255.96 0.03c-10.81,-20.48 -15.39,-36.47 0.8,-56.94l-256.86 0.09 0.09 56.82z"/>
   <path class="fil11" d="M1179.14 776.21l221.96 -1.27c0,-21.41 2.81,-32.04 2.81,-54.55l-225.11 -0.69c5.48,26.61 5.13,29.97 0.34,56.51z"/>
   <path class="fil12" d="M216.03 837.97c16.56,5.67 180.16,6.92 191.2,-0.57 6.11,-5.65 5.09,-2.65 6.27,-14.15 3.16,-30.68 -0.96,-38.78 -20.01,-39.6l-157.24 -0.04c-14.65,0.17 -21.53,2.13 -23.26,16.87 -1.4,11.93 -0.02,28.2 3.04,37.49z"/>
   <path class="fil11" d="M213.25 333.15c0,21.38 -2.84,35.72 20.43,35.72 30.27,0 157.47,4.31 177.01,-3.91 5.62,-33.61 7.88,-53.01 -20.23,-53.01l-156.77 0c-17.37,0 -20.43,3.09 -20.43,21.19z"/>
   <path class="fil11" d="M1069 1020.62l56.74 -0.45 1.2 -191.78c-20.41,7.24 -38.77,7.32 -59.13,-0.03l1.2 192.26z"/>
   <path class="fil13" d="M1146.04 1297.04c-40.14,9.68 -49.73,-11.25 -86.7,-48.22 -28.01,-28.01 -61.04,-50.61 -53,-80.44 -26.79,5.4 -46.78,33.36 -28.6,64.07 4.49,7.59 41.85,42.09 50.25,50.5 11.8,11.79 38.81,43.32 52.87,47.92 29.51,9.66 56.56,-16.04 65.17,-33.84z"/>
   <path class="fil11" d="M281.29 1065.89c26.6,-3.72 37.9,-3.28 64.37,0.14 -10.76,-18.63 -4.16,-117.24 -4.16,-145.42l-56.67 -0.51c0,27.17 5.36,128.06 -3.54,145.79z"/>
   <polygon class="fil11" points="209.83,576.51 291.52,576.38 417.91,576.25 341.5,574.9 341.5,461.82 284.83,461.87 284.83,575.69 "/>
   <path class="fil11" d="M1068.22 667.34c25.73,-6.9 32.67,-6.71 58.36,-0.09l-0.43 -121.67c-23.9,14.03 -33.68,14.09 -57.52,-0.05l-0.41 121.82z"/>
   <path class="fil14" d="M1085.09 256.78c-47.02,17.67 -18.1,84.49 26.18,66.76 42.72,-17.11 18.05,-83.38 -26.18,-66.76z"/>
   <path class="fil14" d="M1205.96 257.08c-48.18,20.06 -15.62,84.93 28.04,65.86 40.33,-17.6 15.19,-83.86 -28.04,-65.86z"/>
   <path class="fil14" d="M965.26 325.01c60.15,7.15 65.38,-70.83 4.72,-70.63 -38.33,13.02 -40.15,53.35 -4.72,70.63z"/>
  </g>
  <path class="fil15" d="M1778.01 1387.65l0 -554.01 -130.14 0 0 -218.08 130.14 0 0 -267.33c0,-100.83 29.02,-183.2 87.06,-247.1 58.04,-63.9 142.16,-95.85 252.37,-95.85 32.83,0 69.47,4.98 109.92,14.95 40.45,9.96 75.92,26.08 106.4,48.36l-103.76 177.63c-11.73,-15.25 -25.5,-25.5 -41.33,-30.78 -15.83,-5.28 -30.78,-7.91 -44.85,-7.91 -35.18,0 -63.9,11.73 -86.17,35.17 -22.28,23.45 -33.42,60.97 -33.42,112.57l0 260.29 232.15 0 0 218.08 -232.15 0 0 554.01 -246.22 0zm528.31 -1387.64l246.22 0 0 1387.64 -246.22 0 0 -1387.64zm276.81 993.68c0,-78.55 18.47,-148.91 55.4,-211.05 36.94,-62.14 88.82,-111.1 155.65,-146.85 66.83,-35.77 143.63,-53.64 230.39,-53.64 87.94,0 164.15,17.87 228.63,53.64 64.49,35.76 114.03,84.71 148.61,146.85 34.59,62.14 51.89,132.49 51.89,211.05 0,78.55 -17.29,149.2 -51.89,211.93 -34.59,62.73 -84.12,112.27 -148.61,148.61 -64.48,36.35 -141.87,54.52 -232.15,54.52 -84.42,0 -159.76,-16.42 -226.01,-49.24 -66.24,-32.83 -118.13,-80.32 -155.64,-142.46 -37.52,-62.14 -56.28,-136.6 -56.28,-223.36zm247.98 1.76c0,60.97 17.59,111.68 52.76,152.13 35.18,40.45 79.73,60.67 133.67,60.67 57.45,0 103.18,-20.22 137.18,-60.67 34,-40.45 51.01,-91.16 51.01,-152.13 0,-60.97 -17,-111.69 -51.01,-152.14 -34,-40.44 -79.73,-60.67 -137.18,-60.67 -53.93,0 -98.49,20.23 -133.67,60.67 -35.17,40.45 -52.76,91.17 -52.76,152.14zm1175.53 -376.37l144.22 339.44 126.63 -339.44 239.18 0 -346.47 814.3 -246.22 -510.04 -225.12 510.04 -349.99 -814.3 239.19 0 142.46 325.37 107.28 -237.43 -40.45 -87.94 209.29 0zm1117.49 699.98c-34,26.97 -76.51,48.65 -127.51,65.08 -51.01,16.41 -101.13,24.62 -150.38,24.62 -131.31,0 -236.55,-35.77 -315.69,-107.29 -79.14,-71.51 -118.72,-171.18 -118.72,-298.98 0,-85.59 19.35,-158.58 58.05,-218.96 38.69,-60.39 89.4,-106.41 152.13,-138.06 62.72,-31.66 128.68,-47.49 197.86,-47.49 69.17,0 129.26,9.38 180.27,28.15 51.01,18.76 94.67,43.38 131.02,73.87l-119.59 158.28c-16.42,-12.9 -38.99,-26.08 -67.72,-39.57 -28.72,-13.48 -62.43,-20.22 -101.12,-20.22 -50.42,0 -93.8,19.05 -130.15,57.16 -36.35,38.11 -54.52,87.05 -54.52,146.85 0,57.45 19.05,106.11 57.16,145.98 38.1,39.86 88.82,59.79 152.13,59.79 53.93,0 98.49,-14.65 133.67,-43.97l123.11 154.77zm27.07 68.59l0 -1387.64 240.95 0 0 740.42c26.97,-46.89 65.08,-85 114.32,-114.31 49.24,-29.32 109.04,-43.97 179.39,-43.97 72.7,0 133.37,21.39 182.03,64.19 48.65,42.8 73.58,98.2 74.75,166.21l0 575.1 -246.22 0 0 -483.65c-1.17,-34 -10.26,-61.26 -27.26,-81.78 -17,-20.52 -45.43,-30.78 -85.3,-30.78 -57.45,0 -102.89,26.67 -136.3,80.02 -33.41,53.35 -50.13,121.06 -50.13,203.14l0 313.05 -246.22 0zm1205.43 21.11c-71.52,0 -136.31,-14.37 -194.34,-43.1 -58.04,-28.72 -104.06,-72.99 -138.06,-132.78 -34,-59.79 -51.01,-136.01 -51.01,-228.63 0,-86.76 17.59,-161.8 52.77,-225.12 35.18,-63.32 81.49,-112.27 138.94,-146.86 57.45,-34.59 118.42,-51.88 182.9,-51.88 75.04,0 131.91,12.02 170.6,36.06 38.69,24.03 70.93,51.29 96.73,81.78l15.83 -79.14 228.64 0 0 768.57 -246.23 0 0 -94.97c-11.72,11.73 -29.02,26.97 -51.88,45.73 -22.86,18.76 -51.3,35.18 -85.3,49.24 -34,14.07 -73.87,21.11 -119.59,21.11zm70.34 -200.5c85.59,0 147.73,-38.69 186.42,-116.07l0 -188.19c-14.07,-37.52 -38.39,-67.42 -72.99,-89.7 -34.59,-22.27 -75.33,-33.41 -122.23,-33.41 -52.76,0 -98.49,19.64 -137.18,58.92 -38.69,39.28 -58.04,89.99 -58.04,152.13 0,41.04 9.38,77.97 28.14,110.8 18.76,32.83 43.68,58.63 74.75,77.38 31.07,18.76 64.78,28.14 101.12,28.14zm744.64 -589.17l19.35 175.87c22.28,-44.55 52.77,-82.95 91.46,-115.19 38.69,-32.24 76.8,-56.86 114.32,-73.87 37.52,-17 66.25,-25.5 86.17,-25.5l-12.31 246.22c-57.45,-7.04 -106.7,2.34 -147.73,28.14 -41.04,25.79 -72.7,59.8 -94.97,102 -22.28,42.21 -33.41,85.59 -33.41,130.15l0 300.74 -244.47 0 0 -768.57 221.6 0zm408.73 -337.67l246.22 0 0 334.16 186.42 0 0 191.7 -186.42 0 0 580.38 -246.22 0 0 -580.38 -119.6 0 0 -191.7 119.6 0 0 -334.16z"/>
  <g id="_2597571416688">
   <path class="fil16" d="M2615.13 0.01l425.22 0 0 57.4 -206.33 0 0 393.05 -64.69 0 0 -393.05 -154.19 0 0 -57.4 0 0zm315.21 154.32l0 67.9 3.32 -5.19c28.92,-45.25 56.6,-62.76 84.92,-62.76 22.1,0 45.21,5.37 69.22,27.7l-30.89 51.42c-20.46,-19.26 -39.34,-28.92 -56.67,-28.92 -18.89,0 -35.31,9 -49.12,27.04 -13.83,18.05 -20.76,39.34 -20.76,64.1l0 154.86 -58.91 0 0 -296.19 58.91 0 0 0 -0.02 0.03zm300.06 296.19l0 -37.71c-12.55,13.52 -26.74,24.07 -42.67,31.55 -16.04,7.61 -31.99,11.28 -47.91,11.28 -18.58,0 -35.84,-4.7 -51.66,-14.05 -15.69,-9.35 -27.7,-21.96 -35.72,-37.9 -8.03,-16.05 -12.08,-42.55 -12.08,-79.67l0 -169.7 58.53 0 0 169.05c0,31.07 4.53,52.86 13.39,65.18 8.93,12.31 24.5,18.46 46.84,18.46 27.94,0 51.65,-13.63 71.22,-40.85l0 -211.77 58.53 0 0 296.19 -58.53 0 0 0 0.05 -0.05zm59.81 -296.19l0 37.6c26.12,-28.92 55.94,-37.6 89.18,-37.6 18.47,0 35.6,-1.08 51.42,8.44 15.93,9.59 27.99,22.63 36.26,39.34 8.2,16.6 12.43,42.97 12.43,79.01l0 169.34 -58.54 0 0 -168.68c0,-30.36 -4.59,-51.9 -13.83,-64.82 -9.23,-13.1 -24.73,-19.55 -46.41,-19.55 -27.7,0 -51.17,13.83 -70.54,41.51l0 211.58 -59.92 0 0 -296.19 59.92 0 0 0 0.03 0.02zm335.53 301.31l-1.51 5.5c11.52,2.72 20.65,8.15 27.15,16.05 6.58,7.91 9.78,16.89 9.78,27.04 0,16.36 -6.51,30.23 -19.55,41.76 -13.1,11.41 -34.1,17.13 -62.89,17.13 -7.91,0 -14.84,-0.42 -20.88,-1.57l0 -36.39c10.99,0.79 17.81,1.21 20.65,1.21 12.19,0 21.79,-2.28 28.54,-7 4.05,-2.77 6.16,-6.46 6.16,-10.99 0,-5.19 -2.24,-9.48 -6.58,-12.86 -4.4,-3.38 -12.55,-5.12 -24.25,-5.12 -2.42,0 -4.83,0.31 -7.47,0.97l14.18 -39.58c-27.95,-6.27 -53.41,-20.88 -76.59,-43.93 -23.18,-23.05 -34.77,-57.69 -34.77,-103.85 0,-46.59 13.46,-84.2 40.26,-112.61 26.85,-28.54 62.1,-37.05 105.91,-37.05 39.41,0 47.26,-2.49 85.93,14.73l0 62.52c-29.69,-18.89 -57.15,-28.37 -82.44,-28.37 -26.37,0 -48.09,9.24 -65.06,27.82 -16.89,18.58 -25.4,42.3 -25.4,70.98 0,30.36 9.11,54.44 27.46,72.16 18.34,17.81 43.1,26.74 74.17,26.74 22.52,0 48.47,-6.58 77.62,-19.68l0 57.93c-29.33,11 -58.12,16.47 -86.31,16.47l-4.16 0 0 0 0.03 -0.02z"/>
   <path class="fil16" d="M3713.67 256.61c0,-31.55 11.52,-56.49 34.59,-74.82 23.04,-18.34 54.62,-27.46 94.5,-27.46l121.97 0 0 45.74 -59.87 0c11.65,11.76 19.68,22.51 24.2,32.17 4.53,9.66 6.82,20.65 6.82,33.07 0,15.51 -4.4,30.65 -13.15,45.63 -8.82,14.98 -20.21,26.37 -33.98,34.28 -13.83,7.91 -36.57,14.3 -68.14,19.02 -22.1,3.19 -33.2,10.75 -33.2,22.87 0,6.82 4.16,12.55 12.43,16.89 8.26,4.4 23.18,8.93 44.96,13.63 36.26,7.91 59.57,14.18 70.01,18.71 10.44,4.52 19.79,10.99 28.13,19.3 14.18,14.19 21.3,31.99 21.3,53.41 0,28.13 -12.55,50.58 -37.6,67.36 -24.94,16.71 -58.47,25.04 -100.25,25.04 -42.3,0 -76.04,-8.45 -101.32,-25.29 -25.16,-16.84 -37.84,-39.47 -37.84,-67.77 0,-40.13 24.87,-65.96 74.41,-77.61 -19.8,-12.62 -29.69,-25.16 -29.69,-37.6 0,-9.41 4.29,-18.1 12.73,-25.84 8.45,-7.67 19.92,-13.38 34.28,-17.01 -43.63,-19.38 -65.35,-50.58 -65.35,-93.73l0 0 0.05 0.02zm110.14 -51.43c-15.81,0 -29.33,5.25 -40.55,16.05 -11.22,10.8 -16.72,23.66 -16.72,38.68 0,15.15 5.5,27.81 16.36,37.78 10.99,10.02 24.87,14.97 41.52,14.97 16.46,0 0.9,-5.01 12,-15.26 11.04,-10.2 16.47,-23 16.47,-38.15 0,-15.5 -5.49,-28.36 -16.71,-38.67 -11.21,-10.31 4.35,-15.39 -12.43,-15.39l0 0 0.05 0zm-13.81 259.15c-19.68,0 -35.84,4.16 -48.47,12.55 -12.55,8.33 -18.77,19.13 -18.77,32.23 0,30.54 27.46,45.74 82.44,45.74 25.95,0 46.05,-3.74 60.35,-11.41 14.3,-7.61 21.42,-18.34 21.42,-32.29 0,-13.76 -9,-24.93 -27.04,-33.62 -18.05,-8.69 -41.34,-13.1 -69.88,-13.1l0 0 -0.05 -0.11zm176.5 -434.65c9.66,0 17.93,3.33 24.87,10.02 6.82,6.58 10.31,14.74 10.31,24.39 0,9.41 -3.5,17.68 -10.31,24.49 -6.94,6.94 -15.15,10.31 -24.87,10.31 -8.99,0 -16.89,-3.5 -23.72,-10.44 -6.94,-7 -10.31,-15.15 -10.31,-24.38 0,-9.06 3.39,-16.89 10.31,-23.96 6.82,-6.95 14.74,-10.45 23.72,-10.45l0 0.02zm-28.89 124.63l58.53 0 0 296.19 -58.53 0 0 -296.19zm90.46 -153.66l58.6 0 0 449.79 -58.6 0 0 -449.79z"/>
  </g>
 </g>
</svg>
